<?xml version="1.0" encoding="utf-8"?>
<!-- Generator: Adobe Illustrator 25.2.0, SVG Export Plug-In . SVG Version: 6.00 Build 0)  -->
<svg version="1.1" id="Calque_1" xmlns="http://www.w3.org/2000/svg" xmlns:xlink="http://www.w3.org/1999/xlink" x="0px" y="0px"
	 viewBox="0 0 16 16" style="enable-background:new 0 0 16 16;" xml:space="preserve">
<style type="text/css">
	.st0{opacity:0;fill:#FFFFFF;}
	.st1{fill:#0D6EFD;}
	.st2{fill:none;stroke:#0D6EFD;stroke-width:0.35;stroke-miterlimit:10;}
</style>
<path class="st0" d="M0,2c0-1.1,0.9-2,2-2h12c1.1,0,2,0.9,2,2v12c0,1.1-0.9,2-2,2H2c-1.1,0-2-0.9-2-2V2z"/>
<g>
	<path class="st1" d="M3.1,5.4h0.5V9h1.7v0.4H3.1V5.4z"/>
	<path class="st1" d="M6.6,5.7C6.6,5.9,6.4,6,6.2,6C6,6,5.9,5.9,5.9,5.7c0-0.2,0.1-0.3,0.3-0.3C6.4,5.4,6.6,5.5,6.6,5.7z M6,9.4V6.5
		h0.5v2.9H6z"/>
	<path class="st1" d="M7.4,7.3c0-0.3,0-0.5,0-0.8h0.5l0,0.5h0c0.1-0.3,0.5-0.5,1-0.5c0.4,0,1,0.2,1,1.2v1.7H9.3V7.8
		c0-0.5-0.2-0.9-0.7-0.9C8.3,6.9,8,7.2,7.9,7.5c0,0.1,0,0.2,0,0.2v1.7H7.4V7.3z"/>
	<path class="st1" d="M11.2,7.9L11.2,7.9c0.1-0.1,0.2-0.2,0.3-0.3l0.9-1H13l-1.1,1.2l1.3,1.7h-0.6l-1-1.4l-0.3,0.3v1.1h-0.5V5.2h0.5
		V7.9z"/>
</g>
<line class="st2" x1="3" y1="10" x2="13.2" y2="10"/>
</svg>
